<?xml version="1.0" encoding="UTF-8" standalone="no"?>
<!-- Created with Inkscape (http://www.inkscape.org/) -->

<svg
   xmlns:dc="http://purl.org/dc/elements/1.1/"
   xmlns:cc="http://creativecommons.org/ns#"
   xmlns:rdf="http://www.w3.org/1999/02/22-rdf-syntax-ns#"
   xmlns:svg="http://www.w3.org/2000/svg"
   xmlns="http://www.w3.org/2000/svg"
   xmlns:sodipodi="http://sodipodi.sourceforge.net/DTD/sodipodi-0.dtd"
   xmlns:inkscape="http://www.inkscape.org/namespaces/inkscape"
   width="480"
   height="100"
   viewBox="0 0 480 100"
   id="svg4399"
   version="1.1"
   inkscape:version="0.91pre4 r13712"
   sodipodi:docname="klaasnotfound_title.svg">
  <defs
     id="defs4401">
    <clipPath
       id="clipPath20315"
       clipPathUnits="userSpaceOnUse">
      <circle
         r="276.7016"
         cy="348.23929"
         cx="673.21429"
         id="circle20317"
         style="opacity:0.8;fill:#483737;fill-opacity:1;stroke:none;stroke-width:12;stroke-linecap:round;stroke-linejoin:round;stroke-miterlimit:4;stroke-dasharray:none;stroke-dashoffset:0;stroke-opacity:1" />
    </clipPath>
    <clipPath
       clipPathUnits="userSpaceOnUse"
       id="clipPath4322">
      <circle
         style="opacity:1;fill:#7dbeb8;fill-opacity:1;stroke:none"
         id="circle4324"
         cx="274.86914"
         cy="593.01215"
         r="45.928722" />
    </clipPath>
  </defs>
  <sodipodi:namedview
     id="base"
     pagecolor="#ffffff"
     bordercolor="#666666"
     borderopacity="1.0"
     inkscape:pageopacity="0.0"
     inkscape:pageshadow="2"
     inkscape:zoom="2.5595233"
     inkscape:cx="329.27135"
     inkscape:cy="61.37267"
     inkscape:document-units="px"
     inkscape:current-layer="layer1"
     showgrid="false"
     units="px"
     inkscape:snap-global="false"
     inkscape:snap-bbox="true"
     inkscape:bbox-paths="true"
     inkscape:bbox-nodes="true"
     inkscape:snap-bbox-edge-midpoints="true"
     inkscape:snap-bbox-midpoints="true"
     inkscape:window-width="2560"
     inkscape:window-height="1277"
     inkscape:window-x="0"
     inkscape:window-y="1"
     inkscape:window-maximized="1"
     showguides="true"
     inkscape:guide-bbox="true"
     fit-margin-top="0"
     fit-margin-left="0"
     fit-margin-right="0"
     fit-margin-bottom="0" />
  <metadata
     id="metadata4404">
    <rdf:RDF>
      <cc:Work
         rdf:about="">
        <dc:format>image/svg+xml</dc:format>
        <dc:type
           rdf:resource="http://purl.org/dc/dcmitype/StillImage" />
        <dc:title />
      </cc:Work>
    </rdf:RDF>
  </metadata>
  <g
     inkscape:label="Layer 1"
     inkscape:groupmode="layer"
     id="layer1"
     transform="translate(1066.03,454.01682)">
    <path
       style="font-style:normal;font-variant:normal;font-weight:normal;font-stretch:normal;font-size:60px;line-height:125%;font-family:Pacifico;-inkscape-font-specification:Pacifico;text-align:center;letter-spacing:0px;word-spacing:0px;writing-mode:lr-tb;text-anchor:middle;fill:#181619;fill-opacity:1;stroke:none;stroke-width:1px;stroke-linecap:butt;stroke-linejoin:miter;stroke-opacity:1"
       d="m 452.1543,20.011719 c -3.9175,-0.11597 -6.72111,3.251228 -8.59571,6.292969 -4.08685,7.072329 -5.74916,15.33686 -6.03906,23.43164 -8.41367,0.78463 -15.16825,8.959178 -14.93359,17.304688 7.9e-4,0.255599 0.0325,0.520371 0.0508,0.78125 l -0.002,0.002 c -0.86534,0.669458 -1.78346,1.262804 -2.78907,1.714843 -1.63156,0.74068 -2.46912,-1.231111 -2.51562,-2.544921 -0.37808,-4.57053 0.96651,-9.037976 1.67969,-13.509766 0.26925,-1.87663 -0.16826,-4.347497 -2.09961,-5.185547 -1.91096,-0.51885 -4.18217,0.200643 -5.33204,1.851563 -1.59012,2.46629 -2.82927,5.141775 -4.26953,7.697265 -0.68556,0.67723 -0.67398,2.533844 -1.8164,2.464844 -0.0838,-1.171 0.3529,-2.662758 0.5039,-3.955078 0.20747,-2.22398 1.04016,-4.549708 0.24024,-6.742188 -0.52741,-1.59102 -2.5309,-1.733241 -3.88867,-1.263672 -1.89423,0.676581 -2.3861,2.825435 -2.69336,4.583985 -0.84892,4.335496 -1.54584,8.718363 -1.88672,13.126953 -1.46317,1.102597 -3.04812,2.05052 -4.68555,2.849609 -1.17827,0.45811 -3.25738,1.576638 -4.02539,-0.01367 -0.68854,-2.48227 -0.0131,-5.055264 0.40234,-7.527344 0.67275,-3.76435 1.54302,-7.517067 1.77149,-11.341797 -0.005,-1.13203 -1.27134,-1.658901 -2.21875,-1.800781 -1.56068,-0.18817 -3.62775,-0.05099 -4.52734,1.423828 -0.9493,4.67014 -1.8294,9.356563 -2.75196,14.033203 -0.32694,2.29239 -1.2916,4.840096 -3.58203,5.791015 -1.67441,0.87916 -2.89019,-1.064768 -2.68164,-2.542968 0.90055,-5.85623 1.87074,-11.703378 2.8418,-17.548828 -0.58736,-1.41598 -2.71208,-1.359905 -4.00391,-1.021485 -2.27155,0.98322 -3.14839,3.570498 -3.79687,5.767578 -0.0845,0.39124 -0.15567,0.785231 -0.23438,1.177735 -1.62453,-1.715487 -3.40107,-3.280377 -5.42383,-4.517578 -4.29638,-2.761643 -10.01201,-3.583078 -14.74023,-1.490235 -0.21727,-0.461315 -0.55546,-0.853426 -1.03125,-1.103515 -5.61895,-0.1692 -11.25673,-0.02467 -16.88281,-0.07227 0.49887,-4.95807 1.04657,-9.913087 1.7832,-14.841797 -0.45366,-2.86829 2.18264,-2.523603 4.29883,-2.720703 7.29984,-0.34522 14.65911,0.104534 21.8789,1.214844 3.56541,0.13329 4.03015,-6.031018 0.31055,-6.298828 -10.00921,-1.29075 -20.21934,-1.926343 -30.25977,-0.601563 -6.58215,0.96816 -13.90972,3.062969 -17.5996,9.074219 -1.15829,2.4283 -2.80439,6.2451 -0.77344,8.46875 2.18108,0.67223 6.54446,1.462636 7.03125,-1.677734 0.28959,-5.03864 5.73364,-7.581247 9.93164,-8.847657 -0.98228,5.32129 -1.60049,10.708298 -2.81641,15.986328 -1.04398,1.72168 -4.32715,1.207074 -6.33984,2.001953 -1.65517,0.04302 -4.14136,1.274953 -2.5918,3.164063 2.03316,1.78635 4.90656,1.128326 7.38281,1.259766 -0.91533,4.41552 -1.94108,8.834199 -3.60351,13.037109 -1.10944,2.34461 -2.19131,5.6536 -5.12696,6.09375 -3.51322,0.23331 -6.6992,-2.799821 -10.16601,-1.800781 -2.19887,1.39032 -3.05075,5.294058 -0.29297,6.605469 6.0282,3.093379 14.32565,2.198151 18.87305,-3.105469 4.83187,-5.81524 6.03695,-13.595228 7.20117,-20.830078 4.4361,-0.06034 8.86894,-0.256042 13.30273,-0.410157 -1.33076,1.97046 -2.18459,4.286688 -2.51367,6.626954 -0.57986,4.364869 -0.0441,9.220189 2.83789,12.724609 1.77421,2.22588 4.69928,3.28177 7.49805,2.962891 4.31469,-0.38778 7.76779,-3.777762 9.42969,-7.607422 2.12097,-4.46763 2.09548,-9.868305 -0.11524,-14.296875 0.27239,-0.77368 1.09829,0.467128 1.55078,0.580078 2.08769,1.51002 4.23757,2.996208 6.18555,4.697265 -0.27131,1.636147 -0.52673,3.275416 -0.79883,4.910157 -0.35933,3.05961 -0.97453,6.328837 0.24024,9.273437 0.77672,2.05614 3.20034,2.914718 5.22851,2.423828 3.47517,-0.85096 6.1653,-3.502924 8.30664,-6.240234 0.41392,1.79147 0.87933,3.738872 2.27735,5.039062 1.74501,1.584 4.33105,0.901514 6.34375,0.308594 2.30363,-0.775025 4.521,-1.843863 6.56445,-3.173828 0.0872,0.85187 0.25918,1.688335 0.6543,2.457031 1.0214,2.15686 4.57591,2.277335 5.68359,0.140625 2.53466,-4.92312 4.99213,-9.888535 7.49609,-14.828125 0.27275,-0.3922 0.31365,-1.159044 0.95118,-0.958984 -0.372,2.6382 -0.79462,5.282885 -0.82032,7.953125 0.0522,2.88321 0.0897,6.099571 1.98829,8.457031 0.90176,1.18495 2.49869,0.943952 3.77734,0.732422 2.52554,-0.489308 4.69894,-1.771836 6.75781,-3.246094 1.00199,1.654658 2.49592,2.935207 4.51758,3.302735 4.43578,0.66708 8.45312,-2.19133 11.49414,-5.09961 1.05532,2.82514 3.75254,5.294622 6.90625,5.169922 4.06624,-0.7064 7.47226,-3.313015 10.73047,-5.697266 -0.2645,-2.03647 -0.52849,-4.072884 -0.79297,-6.109374 -0.2842,-1.438001 -2.41836,1.818992 -3.45508,2.007812 -1.90439,1.10327 -4.20708,3.415283 -6.5332,2.314453 -1.61779,-2.06555 -1.05237,-4.990262 -0.61524,-7.382812 1.28172,-4.54782 3.74362,-8.66188 5.4961,-13.03711 2.8849,-6.97397 5.51056,-14.468213 4.81445,-22.126953 -0.23952,-2.59822 -1.53672,-5.949869 -4.55273,-6.162109 z m -356.423831,0.0059 c -2.544869,0.136784 -4.843294,2.046711 -6.462891,3.929688 -4.74424,5.74456 -7.400841,12.899155 -9.33789,20.009765 -2.080289,7.933758 -3.370726,16.579799 -1.042969,24.574219 -1.640449,1.048784 -3.41468,1.890146 -5.273438,2.464844 -2.67942,0.9771 -6.073916,0.82469 -7.847656,-1.71875 -3.7965,-4.82819 -5.482906,-10.875044 -7.816406,-16.464844 4.5349,-0.02343 9.226648,-0.361634 13.392578,-2.308594 5.0087,-2.17761 7.519495,-7.590536 7.921875,-12.785156 0.27538,-3.04586 0.411605,-6.173299 -0.01563,-9.193359 -1.05059,-2.67971 -6.397948,-2.754687 -7.205078,-0.0039 -0.08429,5.0828 0.206322,10.798595 -3.392578,14.865235 -4.02559,3.9911 -10.125472,3.676281 -15.388672,3.800781 0.3487,-4.93696 0.694865,-9.876952 1.259765,-14.794922 0.0152,-2.44968 1.061485,-6.388032 -2.541015,-6.701172 -5.5345,-0.18283 -11.188072,0.570484 -16.326172,2.714844 -6.1838,2.38531 -10.924681,8.259169 -11.425781,14.943359 -0.118,2.94548 3.758684,3.048605 5.896484,2.833985 3.4015,-0.21328 2.190525,-4.111727 3.203125,-6.285156 1.8142,-5.90803 7.875228,-9.861558 13.986328,-9.585938 -1.0723,8.13878 -1.870125,16.357099 -4.078125,24.292969 -1.693,5.72346 -3.625834,12.111679 -8.740234,15.724609 -2.8615,2.42611 -6.431872,0.423009 -9.388672,0.41211 -1.8552,1.087019 -4.515859,4.913483 -1.38086,6.095703 5.132201,1.90204 11.304319,1.893046 16.011719,-1.152344 6.6942,-4.52885 9.641238,-12.563947 11.648438,-20.060547 2.8165,3.29078 4.29844,7.436645 5.99414,11.359375 1.9278,4.42134 4.352426,9.698843 9.541016,10.876953 5.170429,0.89465 10.287161,-0.934474 14.798828,-3.455078 0.866666,1.022171 1.959241,1.774112 3.386719,1.84375 0.43596,-4e-5 0.871854,-0.03822 1.302734,-0.103516 2.948519,-0.613265 5.670169,-1.897 8.253906,-3.43164 1.235333,2.030235 3.362941,3.516901 5.794918,3.585937 3.59845,0.05369 6.90215,-2.0352 9.31055,-4.5625 0.61531,0.08213 0.99195,2.051456 1.78516,2.728516 1.1797,1.74858 3.50231,2.282112 5.45703,1.732422 1.9491,-0.579997 3.65573,-1.658216 5.17383,-2.980469 1.2657,1.76777 3.23493,3.018842 5.46093,3.082031 3.59845,0.05369 6.90215,-2.0352 9.31055,-4.5625 0.61531,0.08213 0.99195,2.051456 1.78516,2.728516 1.1797,1.74858 3.50231,2.282112 5.45703,1.732422 2.29703,-0.683533 4.25831,-2.05719 5.96875,-3.710938 0.0214,0.04935 0.0362,0.102829 0.0625,0.148438 0.87709,2.18817 3.18179,3.351052 5.40625,3.664062 2.16652,0.28798 4.43254,0.381008 6.56055,-0.195312 2.27357,-0.85481 4.33812,-2.706079 4.91211,-5.136719 0.59231,-1.88772 0.46236,-3.872097 0.26171,-5.810547 -0.16416,-2.32017 -0.99993,-4.502577 -1.54297,-6.742187 -0.46601,-1.36885 0.0377,-2.650778 1.14844,-3.523438 0.94624,-1.20067 2.28461,-2.349798 2.44727,-3.955078 0.22639,-1.5041 -1.09924,-2.640322 -2.50586,-2.732422 -1.79688,-0.34463 -3.71043,0.238594 -4.96289,1.583984 -2.33783,2.712651 -4.40827,5.646432 -6.59375,8.482422 -1.79171,2.61201 -4.20182,4.687006 -6.5918,6.728516 -1.18856,0.927318 -2.727,2.062298 -2.79883,3.693359 -0.21454,0.148019 -0.42588,0.299828 -0.65039,0.435547 -1.2824,1.09218 -3.40531,0.488518 -3.08008,-1.419922 -0.20977,-4.31315 1.22263,-8.474243 1.72657,-12.720703 0.0779,-1.4126 0.4581,-3.163174 -0.65235,-4.271484 -1.38679,-0.84109 -3.29963,0.301135 -4.58593,-0.859375 -0.71149,-1.45998 -2.2704,-2.020251 -3.80079,-1.550781 -4.49184,0.872 -8.05192,4.280022 -10.46484,8.007812 -2.01448,3.240541 -3.60795,6.987322 -3.78516,10.833985 -0.77926,0.740981 -1.61567,1.418718 -2.54492,1.980468 -1.2824,1.09218 -3.40531,0.488518 -3.08008,-1.419922 -0.20977,-4.31315 1.22263,-8.474243 1.72657,-12.720703 0.0779,-1.4126 0.4581,-3.163174 -0.65235,-4.271484 -1.38679,-0.84109 -3.29963,0.301135 -4.58593,-0.859375 -0.71149,-1.45998 -2.2704,-2.020251 -3.80079,-1.550781 -4.49184,0.872 -8.051919,4.280022 -10.464839,8.007812 -1.807391,2.907415 -3.26308,6.223376 -3.673829,9.652344 -0.549018,0.376085 -1.09226,0.759745 -1.65625,1.113281 -1.62542,0.72211 -4.483913,3.316521 -5.751953,1.056641 -1.1095,-2.08737 -0.640217,-4.468471 0.07031,-6.587891 1.62672,-3.7912 3.867914,-7.294265 5.771484,-10.953125 3.88779,-7.37464 8.033374,-15.107169 8.304684,-23.630859 -0.01,-2.42107 -0.23744,-5.650428 -2.814449,-6.736328 -0.608346,-0.17934 -1.207645,-0.242503 -1.794922,-0.210938 z m 182.484371,3.72461 c -2.05136,-0.0075 -3.9243,1.601432 -5.09375,3.226562 -3.65065,5.03125 -5.36742,11.158466 -6.67382,17.160156 -1.49626,0.71346 -3.86239,-0.01326 -5.70899,0.267578 -2.39274,-0.70382 -4.75411,2.393506 -1.9668,3.603516 2.2738,0.30428 4.54299,0.66992 6.80469,1.0625 -0.27641,2.07456 -0.45971,4.16189 -0.52929,6.253906 -1.62635,-1.718248 -3.40416,-3.286493 -5.42969,-4.52539 -4.51345,-2.90118 -10.59571,-3.669513 -15.45117,-1.158204 -4.14163,2.03724 -6.66518,6.425996 -7.29297,10.890626 -0.26279,1.978123 -0.27897,4.052353 0.0312,6.060546 -2.25641,1.961644 -4.75654,3.622813 -7.74219,4.058594 -3.10389,0.3648 -4.4634,-3.083633 -4.58008,-5.626953 -0.6115,-9.72473 2.76592,-19.098771 3.56641,-28.712891 0.38401,-3.79741 -0.48024,-8.652121 -4.35352,-10.357422 -4.45356,-1.263559 -8.927,1.530305 -11.68554,4.865235 -5.55655,6.70378 -8.63452,15.021371 -11.48438,23.144531 -0.93492,-0.04986 -0.15111,-0.870973 -0.13281,-1.408203 1.79801,-6.52474 4.15861,-13.218889 3.3164,-20.074219 -0.27956,-3.18043 -3.01731,-5.81364 -6.22851,-5.86914 -4.46919,-0.55673 -7.84821,3.328687 -9.5918,6.992187 -0.60161,2.11559 -3.00758,4.800355 -1.1914,6.765625 2.7966,2.71609 3.74422,-2.232193 5.32421,-3.751953 1.06494,-1.45761 4.30703,-5.293701 5.31836,-2.181641 -0.30132,10.08812 -2.41263,20.024667 -4.60742,29.847657 -0.64035,3.49467 -2.20876,7.464089 -0.23437,10.787109 1.71264,2.61194 5.90657,1.768415 7.08593,-0.921875 2.13086,-5.8165 3.92051,-11.780227 6.09766,-17.591797 2.64254,-6.93372 5.18374,-14.052311 9.41406,-20.207031 1.08636,-1.78087 4.50293,-4.970307 5.92188,-1.873047 1.25117,4.54603 -0.66822,9.177123 -1.84571,13.533203 -2.42671,7.28448 -3.83826,15.427812 -1.07031,22.826172 1.22792,3.85057 4.90497,7.010378 9.09961,6.617187 4.37301,-0.325402 8.41564,-2.248256 11.82813,-4.976562 0.18336,0.265147 0.37489,0.527423 0.58203,0.779297 1.77421,2.22588 4.69927,3.28177 7.49804,2.962891 4.31469,-0.38778 7.76779,-3.777762 9.42969,-7.607422 2.12097,-4.46763 2.09551,-9.868305 -0.11523,-14.296875 0.27241,-0.77368 1.09828,0.467128 1.55078,0.580078 2.40103,1.736656 4.88866,3.43809 7.05078,5.476562 0.20407,4.216927 0.87316,8.425072 2.94727,12.132813 1.41311,2.60766 4.47268,4.36579 7.44726,3.59375 4.68024,-1.2728 8.73114,-4.087014 12.9375,-6.402344 -5e-5,-1.76861 1e-5,-3.537921 0,-5.306641 -0.11185,-0.55489 0.24635,-2.309001 -0.22265,-1.951171 -3.12506,3.149959 -6.95985,5.725649 -11.19922,7.09375 -2.42556,0.832539 -5.04725,-0.953065 -5.23047,-3.484376 -0.40557,-3.434849 0.0538,-6.906329 0.13281,-10.349609 -0.0579,-2.33919 2.36645,-3.732953 3.39453,-5.689453 l 10.88477,0 c 2.18945,0.30849 3.07607,-3.195486 1.40039,-4.259766 -3.00193,-0.22885 -6.02592,-0.226707 -9.03321,-0.398437 2.31822,-3.78698 4.73248,-7.764997 5.16016,-12.279297 0.14324,-3.34208 -0.75533,-7.499339 -4.08789,-9.037109 -0.48587,-0.193671 -0.96801,-0.281484 -1.44141,-0.283203 z m 171.82618,3.128906 c 2.60103,0.14862 1.2012,4.229374 1.36523,5.990234 -0.94037,7.43989 -3.84436,14.468185 -6.73828,21.328125 -0.0553,-6.86345 0.61476,-13.741408 2.04687,-20.455078 0.72272,-2.36621 1.05481,-5.444831 3.32618,-6.863281 z M 93.539062,27.566406 c 1.059464,-0.07884 0.743881,2.654725 0.47461,3.69336 -1.54115,7.67417 -5.183763,14.720954 -8.876953,21.552734 0.01182,-4.61477 0.817872,-9.206259 2.076172,-13.636719 1.2107,-3.89812 2.478378,-8.029248 5.355468,-11.048828 0.408351,-0.37308 0.726212,-0.542352 0.970703,-0.560547 z M 277.6543,30.470703 c 0.88451,6.53e-4 1.66449,0.674058 1.42773,2.126953 -0.34517,3.20916 -2.03899,6.160341 -3.48633,8.994141 -0.88612,1.55553 -1.48083,3.862498 -3.60351,3.017578 0.96259,-4.13557 1.80301,-8.357006 3.60547,-12.228516 0.18321,-1.239445 1.17213,-1.910808 2.05664,-1.910156 z m -28.24024,23.275391 c 1.10624,0.121753 2.09224,0.991866 2.46289,2.066406 1.37342,3.72075 0.64933,7.913911 -0.91992,11.457031 -0.74785,1.41048 -1.70258,3.216189 -3.48633,3.355469 -3.71008,-0.373923 -4.12003,-3.869994 -4.24414,-6.523438 -0.0764,-1.633879 0.44515,-3.278454 0.94141,-4.798828 0.80573,-2.10899 1.91892,-4.472673 4.11719,-5.408203 0.37697,-0.146052 0.76016,-0.189022 1.1289,-0.148437 z m 105.23438,0 c 1.10623,0.121753 2.09223,0.991866 2.46289,2.066406 1.37342,3.72075 0.64931,7.913911 -0.91992,11.457031 -0.74786,1.41048 -1.70257,3.216179 -3.48633,3.355469 -1.40884,0.06205 -2.75069,-0.720537 -3.40235,-1.966797 -1.40643,-2.92701 -0.8723,-6.377869 0.0996,-9.355469 0.80575,-2.10898 1.91891,-4.472683 4.11719,-5.408203 0.37697,-0.146052 0.76016,-0.189022 1.12891,-0.148437 z m -244.58008,0.0039 -0.98242,4.734375 c -0.70953,3.00114 -0.97121,6.150706 -2.35742,8.947266 -0.7644,1.4669 -1.89401,3.384278 -3.8086,3.173828 -1.71682,-0.32131 -1.98529,-2.391127 -1.96289,-3.847657 0.0215,-2.875979 1.09094,-5.660428 2.54492,-8.105468 1.45252,-2.3428 3.60956,-4.792354 6.56641,-4.902344 z m 27.1875,0 -0.98242,4.734375 c -0.70953,3.00114 -0.97121,6.150706 -2.35742,8.947266 -0.7644,1.4669 -1.89401,3.384278 -3.8086,3.173828 -1.71682,-0.32131 -1.98529,-2.391127 -1.96289,-3.847657 0.0215,-2.875979 1.09094,-5.660428 2.54492,-8.105468 1.45252,-2.3428 3.60956,-4.792354 6.56641,-4.902344 z m 300.38086,0.351562 c 0.22087,3.20241 0.0631,6.439712 0.39648,9.638672 -0.57156,2.13724 -1.81865,4.343772 -3.60547,5.763672 -1.83853,1.45326 -5.03659,0.03605 -4.81054,-2.423828 0.11143,-5.29158 3.24727,-10.586545 8.01953,-12.978516 z M 160.04883,61.25 c 0.74374,2.52802 1.46262,5.247441 0.77539,7.869141 -0.55785,2.2703 -3.58724,3.128998 -5.4375,1.892578 -0.88825,-0.445181 -1.46652,-1.344585 -2.2461,-1.910157 0.008,-0.0099 0.0159,-0.01943 0.0234,-0.0293 l -0.17187,-0.792969 z"
       id="path5956"
       inkscape:connector-curvature="0"
       sodipodi:nodetypes="ccccccccccccccccccccccccccccccccccccccccccccccccccccccccccccccccccccccccccccccccccccccccsccccccccccccccccccccccccccccccccccccccccccccccccccccccccccccccccccccccccccccsscccccccccccccccccccccccccccccccccccccccccccccccccccccscccccsccccssccccsscccsccssccccccscccccccccccccccccccccccccc"
       transform="translate(-1066.03,-454.01682)" />
  </g>
</svg>
