<?xml version="1.0" encoding="UTF-8" standalone="no"?>
<svg
   xmlns:dc="http://purl.org/dc/elements/1.1/"
   xmlns:cc="http://creativecommons.org/ns#"
   xmlns:rdf="http://www.w3.org/1999/02/22-rdf-syntax-ns#"
   xmlns:svg="http://www.w3.org/2000/svg"
   xmlns="http://www.w3.org/2000/svg"
   version="1.1"
   id="svg4399"
   viewBox="0 0 480 100"
   height="100"
   width="480">
  <defs
     id="defs4401">
    <clipPath
       clipPathUnits="userSpaceOnUse"
       id="clipPath20315">
      <circle
         style="opacity:0.8;fill:#483737;fill-opacity:1;stroke:none;stroke-width:12;stroke-linecap:round;stroke-linejoin:round;stroke-miterlimit:4;stroke-dasharray:none;stroke-dashoffset:0;stroke-opacity:1"
         id="circle20317"
         cx="673.21429"
         cy="348.23929"
         r="276.7016" />
    </clipPath>
    <clipPath
       id="clipPath4322"
       clipPathUnits="userSpaceOnUse">
      <circle
         r="45.928722"
         cy="593.01215"
         cx="274.86914"
         id="circle4324"
         style="opacity:1;fill:#7dbeb8;fill-opacity:1;stroke:none" />
    </clipPath>
  </defs>
  <metadata
     id="metadata4404">
    <rdf:RDF>
      <cc:Work
         rdf:about="">
        <dc:format>image/svg+xml</dc:format>
        <dc:type
           rdf:resource="http://purl.org/dc/dcmitype/StillImage" />
        <dc:title></dc:title>
      </cc:Work>
    </rdf:RDF>
  </metadata>
  <g
     transform="translate(1066.03,454.01682)"
     id="layer1">
    <g
       style="fill:#181619;fill-opacity:1"
       transform="translate(0.0900957,-0.12928019)"
       id="g6131">
      <path
         id="path5956"
         style="font-style:normal;font-variant:normal;font-weight:normal;font-stretch:normal;font-size:60px;line-height:125%;font-family:Pacifico;-inkscape-font-specification:Pacifico;text-align:center;letter-spacing:0px;word-spacing:0px;writing-mode:lr-tb;text-anchor:middle;fill:#181619;fill-opacity:1;stroke:none;stroke-width:1px;stroke-linecap:butt;stroke-linejoin:miter;stroke-opacity:1"
         d="m -1011.5986,-421.49496 q -0.293,2.54882 -0.5274,5.18554 -0.2051,2.60742 -0.3808,4.7461 -0.2051,2.51953 -0.3516,4.86328 3.0469,0 5.5957,-0.17578 2.5781,-0.17579 4.6582,-0.73243 2.0801,-0.58593 3.66212,-1.64062 1.61133,-1.08399 2.66601,-2.8418 1.08399,-1.78711 1.61133,-4.36523 0.55664,-2.57813 0.55664,-6.18164 0,-1.46485 0,-2.31446 0.0293,-0.8789 0.32227,-1.34765 0.32226,-0.46875 1.08398,-0.67383 0.79102,-0.20508 2.34375,-0.35156 1.14258,0 1.8457,0.32226 0.73243,0.29297 1.11329,0.73242 0.41015,0.43946 0.52734,0.90821 0.14648,0.43945 0.17578,0.73242 0.0586,0.67383 0.0293,1.78711 0,1.08398 0.0586,2.02148 0,3.31055 -0.43945,6.06446 -0.41016,2.72461 -1.40625,4.92187 -0.9668,2.19727 -2.60742,3.83789 -1.61133,1.64063 -4.01368,2.75391 -2.40234,1.08398 -5.65431,1.64062 -3.2226,0.52735 -7.4414,0.52735 1.7578,4.57031 3.1934,8.08593 1.4648,3.48633 2.8418,5.85938 1.4062,2.37305 2.87106,3.60352 1.46485,1.20117 3.28125,1.20117 1.11328,0 2.46094,-0.29297 1.34766,-0.32227 2.72461,-0.87891 1.40625,-0.58594 2.7832,-1.37695 1.37695,-0.79102 2.54883,-1.72852 l 3.39844,5.74219 q 0,-0.0293 -0.55664,0.35156 -0.55664,0.35157 -1.55274,0.9375 -0.99609,0.55664 -2.37304,1.23047 -1.34766,0.64453 -2.98829,1.23047 -1.64062,0.58594 -3.48632,0.9668 -1.81641,0.38086 -3.72071,0.38086 -2.10937,0 -3.74999,-0.67383 -1.6113,-0.64453 -2.9004,-1.78711 -1.2598,-1.14258 -2.2559,-2.66602 -0.9961,-1.55273 -1.8457,-3.31054 -0.8496,-1.75782 -1.6406,-3.63282 -0.7617,-1.90429 -1.6113,-3.75 -0.8203,-1.8457 -1.7871,-3.54492 -0.9668,-1.72851 -2.1973,-3.13476 -1.5527,5.97656 -3.6328,10.2539 -2.0801,4.24805 -4.6582,6.97266 -2.5488,2.72461 -5.5371,3.98437 -2.959,1.28907 -6.2696,1.28907 -1.1425,0 -2.6953,-0.14649 -1.5527,-0.14648 -2.9882,-0.49804 -1.4063,-0.35157 -2.4024,-0.90821 -0.9961,-0.55664 -0.9961,-1.37695 0,-0.79102 0.3809,-1.43555 0.3808,-0.67383 0.7617,-1.34765 0.1172,-0.20508 0.3809,-0.52735 0.2636,-0.32226 0.6152,-0.61523 0.3515,-0.32227 0.7617,-0.52735 0.4102,-0.23437 0.8203,-0.23437 0.1758,0 0.2637,0.0293 1.0254,0.46875 2.0508,0.76172 1.0547,0.26367 2.0215,0.26367 2.6367,0 4.7753,-1.61133 2.1387,-1.61133 3.8379,-4.39453 1.6993,-2.78321 2.9883,-6.53321 1.3184,-3.77929 2.2852,-8.08593 0.9668,-4.33594 1.6406,-8.96485 0.7031,-4.6582 1.1719,-9.22851 l 0.3515,-2.43164 q -2.5781,0 -4.6582,0.61523 -2.08,0.61524 -3.7207,1.66992 -1.6406,1.05469 -2.8418,2.46094 -1.1718,1.37695 -1.9629,2.90039 -0.7617,1.52344 -1.1425,3.13477 -0.3516,1.58203 -0.3516,3.01758 0,0.14648 -0.1172,0.49804 -0.088,0.35156 -0.4687,0.73242 -0.3516,0.35157 -1.084,0.64454 -0.7031,0.26367 -1.9629,0.26367 -1.6406,0 -2.6074,-0.29297 -0.9375,-0.29297 -1.4356,-0.67383 -0.4687,-0.41016 -0.6152,-0.84961 -0.1465,-0.43945 -0.1465,-0.73242 l 0,-0.26367 q 0,-0.0586 0.029,-0.0879 0.4687,-3.95508 2.0508,-6.79688 1.6113,-2.87109 3.9258,-4.83398 2.3144,-1.96289 5.0976,-3.16407 2.8125,-1.20117 5.625,-1.8457 2.8125,-0.64453 5.4199,-0.84961 2.6368,-0.23437 4.5996,-0.23437 1.1426,0 1.8458,0.26367 0.7324,0.26367 1.1425,0.67383 0.4102,0.41015 0.5567,0.9082 0.1465,0.49805 0.1465,0.9668 0,1.20117 -0.029,2.16797 0,0.9375 -0.088,1.78711 z" />
      <path
         id="path5958"
         style="font-style:normal;font-variant:normal;font-weight:normal;font-stretch:normal;font-size:60px;line-height:125%;font-family:Pacifico;-inkscape-font-specification:Pacifico;text-align:center;letter-spacing:0px;word-spacing:0px;writing-mode:lr-tb;text-anchor:middle;fill:#181619;fill-opacity:1;stroke:none;stroke-width:1px;stroke-linecap:butt;stroke-linejoin:miter;stroke-opacity:1"
         d="m -981.0127,-377.63754 q -1.58203,0 -2.95898,-1.37696 -1.34766,-1.40625 -2.37305,-3.75 -0.99609,-2.34375 -1.58203,-5.41992 -0.55664,-3.10547 -0.55664,-6.5039 0,-2.60743 0.38086,-5.6543 0.38086,-3.07617 1.11328,-6.32813 0.73242,-3.25195 1.72852,-6.5332 1.02539,-3.28125 2.28515,-6.29883 1.28907,-3.01758 2.78321,-5.625 1.49414,-2.63672 3.13476,-4.57031 1.64063,-1.96289 3.42774,-3.07617 1.78711,-1.11328 3.63281,-1.11328 1.25977,0 2.08008,0.58593 0.82031,0.55665 1.28906,1.49415 0.46875,0.9375 0.64453,2.13867 0.20508,1.17187 0.20508,2.40234 0,2.75391 -0.64453,5.625 -0.61524,2.8418 -1.69922,5.74219 -1.05469,2.87109 -2.46094,5.77148 -1.40625,2.90039 -2.92969,5.77149 -1.52343,2.84179 -3.07617,5.625 -1.52343,2.7539 -2.87109,5.39062 -0.14649,0.29297 -0.32227,0.76172 -0.14648,0.46875 -0.29297,1.02539 -0.14648,0.52735 -0.29296,1.14258 -0.14649,0.61523 -0.23438,1.20117 l 0,0.41016 q 0,0.76172 0.14649,1.49414 0.17578,0.70312 0.41015,1.28906 0.23438,0.55664 0.49805,0.9082 0.26367,0.32227 0.49805,0.32227 0.55664,0 1.25976,-0.23438 0.73242,-0.23437 1.52344,-0.61523 0.82031,-0.41016 1.66992,-0.9082 0.84961,-0.52735 1.64063,-1.05469 1.8457,-1.23047 3.86718,-2.8418 l 2.40235,6.15235 q -2.60743,1.875 -5.15625,3.33984 -1.11328,0.61523 -2.31446,1.23047 -1.17187,0.58594 -2.37304,1.05469 -1.20118,0.46875 -2.34375,0.76172 -1.14258,0.26367 -2.13868,0.26367 z m 0.0293,-23.4375 q 1.31836,-2.34375 2.7832,-5.27344 1.49415,-2.92969 2.8125,-6.03516 1.31836,-3.10547 2.28516,-6.18164 0.9668,-3.10547 1.23047,-5.77148 0,-0.84961 -0.0586,-1.43555 -0.0293,-0.61523 -0.26368,-0.61523 -0.84961,0 -1.8457,1.11328 -0.9668,1.08398 -1.96289,2.95898 -0.9668,1.875 -1.875,4.36524 -0.87891,2.49023 -1.58203,5.30273 -0.70313,2.8125 -1.11328,5.80078 -0.41016,2.95899 -0.41016,5.77149 z" />
      <path
         id="path5960"
         style="font-style:normal;font-variant:normal;font-weight:normal;font-stretch:normal;font-size:60px;line-height:125%;font-family:Pacifico;-inkscape-font-specification:Pacifico;text-align:center;letter-spacing:0px;word-spacing:0px;writing-mode:lr-tb;text-anchor:middle;fill:#181619;fill-opacity:1;stroke:none;stroke-width:1px;stroke-linecap:butt;stroke-linejoin:miter;stroke-opacity:1"
         d="m -940.14355,-384.81528 q -0.67383,0.9375 -1.81641,2.19727 -1.11328,1.25976 -2.51953,2.40234 -1.40625,1.14258 -3.01758,1.9336 -1.61133,0.79101 -3.22266,0.79101 -1.93359,0 -3.22265,-1.23047 -1.28907,-1.25976 -2.22657,-3.63281 -0.70312,0.82031 -1.72851,1.66992 -1.02539,0.84961 -2.25586,1.55274 -1.20117,0.67382 -2.51953,1.11328 -1.31836,0.43945 -2.63672,0.43945 -1.40625,0 -2.75391,-0.55664 -1.31836,-0.58594 -2.34375,-1.64062 -1.02539,-1.08399 -1.64062,-2.60743 -0.61524,-1.55273 -0.61524,-3.48632 0,-2.19727 0.61524,-4.51172 0.61523,-2.31446 1.69922,-4.51172 1.08398,-2.22656 2.54883,-4.18946 1.49414,-1.96289 3.25195,-3.42773 1.75781,-1.46484 3.6914,-2.31445 1.9629,-0.87891 3.98438,-0.87891 0.67383,0 1.05469,0.26367 0.38086,0.26367 0.61523,0.61524 0.26367,0.32226 0.49805,0.64453 0.23437,0.32226 0.58594,0.46875 0.35156,0.14648 0.70312,0.20508 0.38086,0.0293 0.76172,0.0293 0.32227,0 0.64453,0 0.35156,-0.0293 0.67383,-0.0293 0.43945,0 0.82031,0.0879 0.38086,0.0879 0.67383,0.38086 0.29297,0.29297 0.43945,0.82031 0.17578,0.52734 0.17578,1.43555 0,1.40625 -0.29296,3.13476 -0.29297,1.69922 -0.64454,3.51563 -0.35156,1.78711 -0.64453,3.60351 -0.29297,1.78711 -0.29297,3.39844 0,1.37695 0.23438,2.16797 0.26367,0.76172 1.08398,0.76172 0.61524,0 1.28907,-0.29297 0.67382,-0.32227 1.34765,-0.82031 0.70313,-0.49805 1.37696,-1.11329 0.70312,-0.64453 1.31835,-1.31835 1.43555,-1.58204 2.9004,-3.57422 l 1.40625,6.5039 z m -25.01954,-2.31445 q 0,0.73242 0.0879,1.43555 0.11719,0.67382 0.38086,1.23047 0.26368,0.52734 0.70313,0.8789 0.43945,0.32227 1.11328,0.32227 1.08398,0 1.96289,-0.9375 0.87891,-0.9375 1.52344,-2.25586 0.64453,-1.31836 1.02539,-2.72461 0.41016,-1.40625 0.52734,-2.34375 l 1.78711,-8.61328 q -1.20117,0 -2.34375,0.61523 -1.14258,0.58594 -2.16797,1.61133 -0.99609,1.02539 -1.8457,2.34375 -0.84961,1.31836 -1.46484,2.7832 -0.61524,1.43555 -0.9668,2.90039 -0.32227,1.46485 -0.32227,2.75391 z" />
      <path
         id="path5962"
         style="font-style:normal;font-variant:normal;font-weight:normal;font-stretch:normal;font-size:60px;line-height:125%;font-family:Pacifico;-inkscape-font-specification:Pacifico;text-align:center;letter-spacing:0px;word-spacing:0px;writing-mode:lr-tb;text-anchor:middle;fill:#181619;fill-opacity:1;stroke:none;stroke-width:1px;stroke-linecap:butt;stroke-linejoin:miter;stroke-opacity:1"
         d="m -912.95605,-384.81528 q -0.67383,0.9375 -1.81641,2.19727 -1.11328,1.25976 -2.51953,2.40234 -1.40625,1.14258 -3.01758,1.9336 -1.61133,0.79101 -3.22266,0.79101 -1.93359,0 -3.22265,-1.23047 -1.28907,-1.25976 -2.22657,-3.63281 -0.70312,0.82031 -1.72851,1.66992 -1.02539,0.84961 -2.25586,1.55274 -1.20117,0.67382 -2.51953,1.11328 -1.31836,0.43945 -2.63672,0.43945 -1.40625,0 -2.75391,-0.55664 -1.31836,-0.58594 -2.34375,-1.64062 -1.02539,-1.08399 -1.64062,-2.60743 -0.61524,-1.55273 -0.61524,-3.48632 0,-2.19727 0.61524,-4.51172 0.61523,-2.31446 1.69922,-4.51172 1.08398,-2.22656 2.54883,-4.18946 1.49414,-1.96289 3.25195,-3.42773 1.75781,-1.46484 3.6914,-2.31445 1.9629,-0.87891 3.98438,-0.87891 0.67383,0 1.05469,0.26367 0.38086,0.26367 0.61523,0.61524 0.26367,0.32226 0.49805,0.64453 0.23437,0.32226 0.58594,0.46875 0.35156,0.14648 0.70312,0.20508 0.38086,0.0293 0.76172,0.0293 0.32227,0 0.64453,0 0.35156,-0.0293 0.67383,-0.0293 0.43945,0 0.82031,0.0879 0.38086,0.0879 0.67383,0.38086 0.29297,0.29297 0.43945,0.82031 0.17578,0.52734 0.17578,1.43555 0,1.40625 -0.29296,3.13476 -0.29297,1.69922 -0.64454,3.51563 -0.35156,1.78711 -0.64453,3.60351 -0.29297,1.78711 -0.29297,3.39844 0,1.37695 0.23438,2.16797 0.26367,0.76172 1.08398,0.76172 0.61524,0 1.28907,-0.29297 0.67382,-0.32227 1.34765,-0.82031 0.70313,-0.49805 1.37696,-1.11329 0.70312,-0.64453 1.31835,-1.31835 1.43555,-1.58204 2.9004,-3.57422 l 1.40625,6.5039 z m -25.01954,-2.31445 q 0,0.73242 0.0879,1.43555 0.11719,0.67382 0.38086,1.23047 0.26368,0.52734 0.70313,0.8789 0.43945,0.32227 1.11328,0.32227 1.08398,0 1.96289,-0.9375 0.87891,-0.9375 1.52344,-2.25586 0.64453,-1.31836 1.02539,-2.72461 0.41016,-1.40625 0.52734,-2.34375 l 1.78711,-8.61328 q -1.20117,0 -2.34375,0.61523 -1.14258,0.58594 -2.16797,1.61133 -0.99609,1.02539 -1.8457,2.34375 -0.84961,1.31836 -1.46484,2.7832 -0.61524,1.43555 -0.9668,2.90039 -0.32227,1.46485 -0.32227,2.75391 z" />
      <path
         id="path5964"
         style="font-style:normal;font-variant:normal;font-weight:normal;font-stretch:normal;font-size:60px;line-height:125%;font-family:Pacifico;-inkscape-font-specification:Pacifico;text-align:center;letter-spacing:0px;word-spacing:0px;writing-mode:lr-tb;text-anchor:middle;fill:#181619;fill-opacity:1;stroke:none;stroke-width:1px;stroke-linecap:butt;stroke-linejoin:miter;stroke-opacity:1"
         d="m -917.35059,-388.88754 c 1.09375,-0.9375 1.98243,-1.71875 2.66602,-2.34375 0.68359,-0.625 1.26953,-1.19141 1.75781,-1.69922 0.48828,-0.52735 0.92773,-1.05469 1.31836,-1.58203 0.41016,-0.52735 0.88868,-1.15235 1.43555,-1.875 0.54687,-0.72266 1.21094,-1.60157 1.99219,-2.63672 0.78125,-1.05469 1.79687,-2.36328 3.04687,-3.92578 0.25391,-0.35157 0.53711,-0.69336 0.84961,-1.02539 0.3125,-0.33203 0.6543,-0.625 1.02539,-0.87891 0.39063,-0.27344 0.81055,-0.48828 1.25977,-0.64453 0.46875,-0.17578 0.98632,-0.26367 1.55273,-0.26367 0.9375,0 1.66016,0.10742 2.16797,0.32226 0.50781,0.19531 0.87891,0.43945 1.11328,0.73242 0.23437,0.29297 0.37109,0.60547 0.41016,0.9375 0.0391,0.3125 0.0586,0.58594 0.0586,0.82032 0,0.46875 -0.18555,0.98632 -0.55664,1.55273 -0.37109,0.56641 -0.78125,1.11328 -1.23047,1.64063 -0.44922,0.52734 -0.87891,1.01562 -1.28906,1.46484 -0.39063,0.42969 -0.61524,0.75195 -0.67383,0.9668 0,0.60547 0.0391,1.16211 0.11719,1.66992 0.0976,0.48828 0.21484,0.97656 0.35156,1.46484 0.15625,0.46875 0.3125,0.97657 0.46875,1.52344 0.15625,0.52735 0.30274,1.14258 0.43945,1.8457 0.15625,0.70313 0.27344,1.51367 0.35157,2.43164 0.0977,0.91797 0.14648,2.00196 0.14648,3.25196 -0.47724,2.89465 -0.81467,4.72689 -4.12695,6.79883 -1.53602,0.96083 -3.5293,0.96484 -5.13086,0.96484 -1.15235,0 -2.22657,-0.10742 -3.22266,-0.32227 -0.99609,-0.21484 -1.875,-0.54687 -2.63672,-0.99609 -0.74219,-0.46875 -1.34765,-1.07422 -1.8164,-1.81641 -0.46875,-0.74219 -0.75196,-1.64062 -0.84961,-2.69531 -0.27344,0.0586 -0.54688,0.0977 -0.82031,0.11719 -0.25391,0.0195 -0.50781,0.0293 -0.76172,0.0293 -0.3125,0 -0.60547,-0.01 -0.87891,-0.0293 -0.27344,-0.0195 -0.50781,-0.0879 -0.70312,-0.20508 -0.19531,-0.13672 -0.35156,-0.3418 -0.46875,-0.61523 -0.11719,-0.29297 -0.17579,-0.70313 -0.17579,-1.23047 0,-0.46875 0.11719,-0.89844 0.35157,-1.28907 0.23437,-0.41015 0.50781,-0.77148 0.82031,-1.08398 0.3125,-0.3125 0.625,-0.58594 0.9375,-0.82031 0.3125,-0.23437 0.54687,-0.41992 0.70312,-0.55664 z m 3.75,3.75 c 0.23438,0 0.48829,0.14648 0.76172,0.43945 0.29297,0.29297 0.62501,0.61523 0.9961,0.9668 0.37109,0.35156 0.80078,0.67382 1.28906,0.96679 0.48828,0.29297 1.04492,0.43946 1.66992,0.43946 0.76172,0 1.38672,-0.12695 1.875,-0.38086 0.50781,-0.25391 0.9082,-0.58594 1.20117,-0.9961 0.29297,-0.42969 0.49805,-0.91797 0.61524,-1.46484 0.11719,-0.56641 0.17578,-1.15234 0.17578,-1.75781 0,-0.52735 -0.0391,-1.06446 -0.11719,-1.61133 -0.0586,-0.54687 -0.14649,-1.06445 -0.26367,-1.55273 -0.0977,-0.50781 -0.21485,-0.97656 -0.35156,-1.40625 -0.11719,-0.44922 -0.22461,-0.83008 -0.32227,-1.14258 z" />
      <path
         id="path5966"
         style="font-style:normal;font-variant:normal;font-weight:normal;font-stretch:normal;font-size:60px;line-height:125%;font-family:Pacifico;-inkscape-font-specification:Pacifico;text-align:center;letter-spacing:0px;word-spacing:0px;writing-mode:lr-tb;text-anchor:middle;fill:#181619;fill-opacity:1;stroke:none;stroke-width:1px;stroke-linecap:butt;stroke-linejoin:miter;stroke-opacity:1"
         d="m -865.49512,-399.93246 q 2.02149,-5.97657 3.98438,-10.4004 1.96289,-4.45312 3.83789,-7.58789 1.9043,-3.16406 3.66211,-5.15625 1.78711,-2.02148 3.45703,-3.16406 1.69922,-1.14258 3.25195,-1.58203 1.58203,-0.43945 3.04688,-0.43945 1.69922,0 2.90039,0.82031 1.20117,0.82031 1.96289,2.10937 0.79101,1.28907 1.14258,2.8418 0.35156,1.55274 0.35156,3.04688 0,1.75781 -0.29297,3.92578 -0.26367,2.13867 -0.67383,4.54101 -0.41015,2.40235 -0.9082,4.98047 -0.49805,2.54883 -0.9082,5.09766 -0.41016,2.51953 -0.70313,4.98047 -0.26367,2.43164 -0.26367,4.59961 0,0.70312 0.0293,1.58203 0.0586,0.84961 0.20507,1.75781 0.14649,0.87891 0.41016,1.72852 0.29297,0.84961 0.76172,1.52343 0.49805,0.67383 1.20117,1.08399 0.73242,0.41015 1.72852,0.41015 1.40625,0 2.95898,-0.70312 1.58203,-0.70313 3.07617,-1.75781 1.52344,-1.08399 2.8711,-2.31446 1.37695,-1.25976 2.40234,-2.31445 1.05469,-1.08398 1.64063,-1.78711 0.61523,-0.73242 0.61523,-0.76172 l 1.75781,6.35742 q -0.9375,1.25977 -2.13867,2.51954 -1.20117,1.23046 -2.57812,2.34375 -1.37696,1.11328 -2.92969,2.08007 -1.52344,0.9375 -3.13477,1.64063 -1.61133,0.70312 -3.25195,1.08398 -1.61133,0.41016 -3.19336,0.41016 -2.05078,0 -3.60352,-0.70313 -1.55273,-0.70312 -2.69531,-1.90429 -1.11328,-1.20117 -1.875,-2.78321 -0.76172,-1.61132 -1.23047,-3.39843 -0.43945,-1.78711 -0.64453,-3.63282 -0.17578,-1.8457 -0.17578,-3.57421 0,-2.28516 0.35156,-4.48243 0.38086,-2.19726 0.90821,-4.30664 0.52734,-2.13867 1.17187,-4.16015 0.64453,-2.02149 1.17188,-3.92578 0.52734,-1.9336 0.8789,-3.72071 0.38086,-1.8164 0.38086,-3.48633 0,-0.43945 -0.0586,-1.17187 -0.0586,-0.73242 -0.26367,-1.40625 -0.17579,-0.67383 -0.58594,-1.17188 -0.41016,-0.49804 -1.11328,-0.49804 -1.17188,0 -2.43164,1.11328 -1.23047,1.08398 -2.54883,3.01758 -1.28906,1.93359 -2.60742,4.59961 -1.31836,2.63671 -2.63672,5.71289 -1.28906,3.04687 -2.57813,6.44531 -1.25976,3.36914 -2.46093,6.79687 -1.17188,3.39844 -2.28516,6.70899 -1.11328,3.31055 -2.08008,6.24023 -0.82031,1.58203 -1.9043,2.25586 -1.05468,0.64453 -2.37304,0.64453 -0.76172,0 -1.49414,-0.32226 -0.70313,-0.32227 -1.25977,-0.9375 -0.55664,-0.64453 -0.87891,-1.55274 -0.32226,-0.9375 -0.32226,-2.10937 0,-1.23047 0.11719,-2.22656 0.11718,-0.9961 0.35156,-2.02149 0.73242,-3.33984 1.34766,-6.18164 0.64453,-2.8418 1.17187,-5.41992 0.52734,-2.57813 0.9375,-4.98047 0.43945,-2.43164 0.79102,-4.86328 0.35156,-2.46094 0.61523,-5.03906 0.26367,-2.57813 0.46875,-5.50782 0,-0.26367 0,-0.67382 0,-0.41016 -0.0879,-0.76172 -0.0879,-0.38086 -0.32227,-0.64453 -0.20507,-0.26368 -0.64453,-0.26368 -0.58593,0 -1.43554,0.55664 -0.82032,0.55665 -1.72852,1.55274 -0.87891,0.9668 -1.81641,2.28516 -0.9082,1.31835 -1.66992,2.84179 -0.17578,0.43946 -0.55664,0.64453 -0.38086,0.17578 -0.84961,0.17578 -0.38086,0 -0.79101,-0.23437 -0.41016,-0.26367 -0.76172,-0.61523 -0.35156,-0.35157 -0.58594,-0.73243 -0.23437,-0.41015 -0.23437,-0.73242 0,-0.17578 0.11718,-0.29297 0.9668,-3.31054 2.19727,-5.5957 1.25976,-2.31445 2.63672,-3.7207 1.40625,-1.43555 2.84179,-2.08008 1.43555,-0.64453 2.8125,-0.64453 2.08008,0 3.48633,0.64453 1.43555,0.61523 2.31446,1.75781 0.8789,1.11328 1.25976,2.69531 0.38086,1.58203 0.38086,3.51563 0,1.93359 -0.32227,4.16015 -0.32226,2.22657 -0.8789,4.62891 -0.55664,2.37305 -1.25977,4.86328 -0.70312,2.49024 -1.43554,4.95117 l 0.49804,0.17579 z" />
      <path
         id="path5968"
         style="font-style:normal;font-variant:normal;font-weight:normal;font-stretch:normal;font-size:60px;line-height:125%;font-family:Pacifico;-inkscape-font-specification:Pacifico;text-align:center;letter-spacing:0px;word-spacing:0px;writing-mode:lr-tb;text-anchor:middle;fill:#181619;fill-opacity:1;stroke:none;stroke-width:1px;stroke-linecap:butt;stroke-linejoin:miter;stroke-opacity:1"
         d="m -809.59668,-399.5809 q 0.84961,1.69922 1.25977,3.60351 0.43945,1.875 0.43945,3.60352 0,1.72851 -0.38086,3.48633 -0.38086,1.75781 -1.11328,3.39843 -0.70313,1.64063 -1.75781,3.07618 -1.02539,1.43554 -2.37305,2.49023 -1.31836,1.05469 -2.90039,1.66992 -1.58203,0.61524 -3.36914,0.61524 -2.57813,0 -4.42383,-1.11328 -1.81641,-1.14258 -2.98828,-2.95899 -1.17188,-1.8164 -1.72852,-4.10156 -0.52734,-2.28516 -0.52734,-4.62891 0,-3.22265 0.9668,-6.00586 0.96679,-2.8125 2.7539,-4.86328 1.81641,-2.08008 4.42383,-3.25195 2.60742,-1.20117 5.85938,-1.20117 2.7832,0 5.21484,0.8789 2.43164,0.84961 4.54101,2.31446 2.13868,1.43554 3.95508,3.31054 1.84571,1.875 3.42774,3.86719 l -0.55664,4.13086 q -0.79102,-1.05469 -2.13868,-2.28516 -1.34765,-1.23046 -2.87109,-2.40234 -1.49414,-1.17187 -2.95898,-2.19727 -1.46485,-1.05468 -2.51953,-1.75781 l -0.23438,0.32227 z m -9.05273,16.31836 q 0.99609,0 1.93359,-0.9961 0.9375,-1.02539 1.64062,-2.54882 0.70313,-1.55274 1.11329,-3.39844 0.43945,-1.875 0.43945,-3.57422 0,-1.34766 -0.20508,-2.49024 -0.20508,-1.17187 -0.61523,-2.02148 -0.41016,-0.84961 -1.05469,-1.34766 -0.64453,-0.49804 -1.55274,-0.49804 -1.20117,0 -2.28515,1.02539 -1.08399,1.02539 -1.9043,2.63672 -0.82031,1.58203 -1.28906,3.51562 -0.46875,1.9336 -0.46875,3.7207 0,1.23047 0.23437,2.31446 0.23438,1.08398 0.73243,1.90429 0.49804,0.79102 1.31836,1.28907 0.82031,0.46875 1.96289,0.46875 z" />
      <path
         id="path5970"
         style="font-style:normal;font-variant:normal;font-weight:normal;font-stretch:normal;font-size:60px;line-height:125%;font-family:Pacifico;-inkscape-font-specification:Pacifico;text-align:center;letter-spacing:0px;word-spacing:0px;writing-mode:lr-tb;text-anchor:middle;fill:#181619;fill-opacity:1;stroke:none;stroke-width:1px;stroke-linecap:butt;stroke-linejoin:miter;stroke-opacity:1"
         d="m -777.66309,-384.20004 q -2.8125,1.64062 -5.00976,2.87109 -2.19727,1.23047 -3.92578,2.05078 -1.69922,0.82031 -3.04688,1.23047 -1.31836,0.41016 -2.40234,0.41016 -2.22656,0 -3.92578,-1.34766 -1.69922,-1.34766 -2.8418,-3.86719 -1.14258,-2.54882 -1.72852,-6.15234 -0.55664,-3.60352 -0.55664,-8.11523 0,-1.75782 0.14649,-3.75 0.14648,-1.99219 0.41015,-3.95508 -0.8789,-0.11719 -1.37695,-0.20508 -0.46875,-0.11719 -1.02539,-0.20508 -0.52734,-0.11719 -1.37695,-0.23437 -0.82031,-0.11719 -2.40235,-0.29297 -0.70312,-0.0879 -1.08398,-0.32227 -0.38086,-0.26367 -0.55664,-0.58594 -0.17578,-0.35156 -0.20508,-0.70312 -0.0293,-0.38086 -0.0293,-0.64453 0,-0.58594 0.58594,-0.87891 0.55664,-0.32226 1.46485,-0.46875 0.8789,-0.14648 1.93359,-0.14648 1.08398,-0.0293 2.05078,0 0.99609,0.0293 1.75781,0.0586 0.79102,0 1.08399,-0.0586 0.79101,-3.95508 1.99218,-7.64649 1.23047,-3.7207 2.72461,-6.59179 1.52344,-2.90039 3.31055,-4.62891 1.78711,-1.75781 3.75,-1.75781 1.25977,0 2.28516,0.70312 1.05468,0.70313 1.78711,1.875 0.73242,1.17188 1.11328,2.75391 0.41015,1.55273 0.41015,3.25195 0,1.43555 -0.41015,3.04688 -0.41016,1.58203 -1.11328,3.25195 -0.70313,1.64062 -1.66993,3.33984 -0.9375,1.69922 -1.99218,3.36914 0.26367,0.0293 0.8789,0.0586 0.61524,0 1.40625,0.0293 0.82032,0.0293 1.75782,0.0879 0.9375,0.0293 1.8164,0.0586 0.87891,0.0293 1.64063,0.0586 0.76172,0.0293 1.25976,0.0586 0.58594,0.0293 0.84961,0.58593 0.26367,0.55664 0.26367,1.40625 0,1.02539 -0.58593,1.66993 -0.58594,0.64453 -1.28907,0.64453 l -11.25,0 q -0.84961,1.17187 -1.72851,2.31445 -0.84961,1.11328 -1.58203,2.02148 -0.11719,1.81641 -0.20508,3.57422 -0.0293,0.76172 -0.0586,1.58203 -0.0293,0.79102 -0.0586,1.58204 -0.0293,0.79101 -0.0586,1.52343 0,0.73243 0,1.34766 0,1.58203 0.29297,2.66602 0.29297,1.08398 0.84961,1.7871 0.55664,0.67383 1.34765,0.9961 0.82031,0.29297 1.81641,0.29297 0.61523,0 1.52344,-0.29297 0.9375,-0.29297 2.02148,-0.79102 1.11328,-0.52734 2.31445,-1.23047 1.23047,-0.70312 2.40235,-1.52343 1.20117,-0.84961 2.28515,-1.75782 1.08399,-0.9375 1.96289,-1.90429 l 0,7.5 z m -9.375,-37.08985 q 0,-0.32226 -0.0586,-0.70312 -0.0293,-0.41016 -0.17578,-0.76172 -0.14649,-0.35156 -0.46875,-0.58594 -0.29297,-0.23437 -0.84961,-0.23437 -0.76172,0 -1.55273,1.34765 -0.76172,1.34766 -1.49415,3.45703 -0.70312,2.08008 -1.34765,4.59961 -0.61524,2.51954 -1.14258,4.89258 0.43945,0.0586 0.87891,0.11719 0.43945,0.0293 0.9082,0.0879 0.87891,-1.49414 1.81641,-3.22266 0.96679,-1.75781 1.72851,-3.42773 0.76172,-1.69922 1.25977,-3.16406 0.49804,-1.46485 0.49804,-2.40235 z" />
      <path
         id="path5972"
         style="font-style:normal;font-variant:normal;font-weight:normal;font-stretch:normal;font-size:60px;line-height:125%;font-family:Pacifico;-inkscape-font-specification:Pacifico;text-align:center;letter-spacing:0px;word-spacing:0px;writing-mode:lr-tb;text-anchor:middle;fill:#181619;fill-opacity:1;stroke:none;stroke-width:1px;stroke-linecap:butt;stroke-linejoin:miter;stroke-opacity:1"
         d="m -747.25293,-413.14536 q 0,0.0586 -0.0293,0.41016 -0.0293,0.35156 -0.32226,0.76172 -0.29297,0.41016 -0.9668,0.73242 -0.64453,0.32227 -1.9043,0.32227 -1.69921,0 -2.66601,-0.17578 -0.9375,-0.20508 -1.40625,-0.52735 -0.43945,-0.35156 -0.55664,-0.76172 -0.0879,-0.43945 -0.0879,-0.8789 0,-4.36524 2.19726,-7.47071 2.19727,-3.13476 6.15235,-5.12695 3.98437,-1.99219 9.52148,-2.92969 5.56641,-0.9375 12.27539,-0.9375 4.45313,0 9.31641,0.29297 4.89258,0.29297 10.07812,1.02539 1.49414,0.41016 2.05078,1.17188 0.58594,0.76172 0.58594,1.61133 0,0.55664 -0.17578,1.17187 -0.14648,0.61524 -0.46875,1.14258 -0.32227,0.52734 -0.87891,0.87891 -0.52734,0.32226 -1.25976,0.32226 -0.11719,0 -0.26367,0 -0.11719,-0.0293 -0.26368,-0.0586 -1.90429,-0.32227 -4.13085,-0.55664 -2.22657,-0.26368 -4.65821,-0.41016 -2.43164,-0.17578 -5.03906,-0.23437 -2.57813,-0.0879 -5.24414,-0.0879 -0.79102,0 -1.9043,0.0879 -1.08398,0.0879 -2.10937,0.20507 -1.17188,0.11719 -2.43164,0.29297 0,0.32227 -0.0586,0.73242 -0.0586,0.41016 -0.17578,1.14258 -0.11719,0.73242 -0.29297,1.875 -0.14648,1.14258 -0.38086,2.95899 -0.23437,1.78711 -0.52734,4.33593 -0.29297,2.54883 -0.64453,6.06446 l 16.25976,0 q 0.70313,0 1.08399,0.29297 0.38086,0.26367 0.55664,0.70312 0.17578,0.41016 0.20508,0.9082 0.0293,0.46875 0.0293,0.90821 0,1.40625 -0.61523,2.10937 -0.61523,0.70313 -1.25977,0.70313 -0.20507,0 -1.34765,0.0586 -1.14258,0.0293 -2.78321,0.0879 -1.64062,0.0586 -3.60351,0.14649 -1.96289,0.0586 -3.80859,0.11718 -1.81641,0.0586 -3.33985,0.11719 -1.49414,0.0293 -2.25586,0.0293 -0.52734,3.54492 -1.20117,6.82617 -0.67383,3.28125 -1.69922,6.15234 -0.99609,2.8418 -2.37305,5.18555 -1.37695,2.34375 -3.28125,4.01367 -1.90429,1.66992 -4.39453,2.57813 -2.49023,0.9375 -5.71289,0.9375 -0.67383,0 -1.61133,-0.0879 -0.9375,-0.0879 -1.96289,-0.29297 -1.02539,-0.20508 -2.05078,-0.55664 -0.99609,-0.32227 -1.78711,-0.82032 -0.79101,-0.49804 -1.28906,-1.17187 -0.49805,-0.64453 -0.49805,-1.49414 0,-0.43945 0.17579,-1.14258 0.20507,-0.73242 0.58593,-1.40625 0.41016,-0.67383 0.9961,-1.17187 0.61523,-0.49805 1.46484,-0.49805 0.9668,0 2.02148,0.32226 1.08399,0.32227 2.22657,0.73243 1.14258,0.38086 2.34375,0.70312 1.20117,0.32227 2.43164,0.32227 0.96679,0 1.875,-0.76172 0.9082,-0.79102 1.69922,-2.13867 0.82031,-1.37696 1.55273,-3.19336 0.73242,-1.84571 1.37695,-3.95508 0.64454,-2.13867 1.20118,-4.45313 0.55664,-2.31445 1.02539,-4.6289 l -3.60352,0 q -0.49805,0 -1.23047,-0.11719 -0.73242,-0.11719 -1.40625,-0.38086 -0.67383,-0.29297 -1.14258,-0.76172 -0.46875,-0.46875 -0.46875,-1.17187 0,-0.49805 0.26368,-0.9375 0.26367,-0.43946 0.8789,-0.64453 1.64063,-0.35157 2.8711,-0.61524 1.23046,-0.26367 2.16796,-0.43945 0.9668,-0.20508 1.69922,-0.35156 0.73243,-0.14649 1.34766,-0.23438 0.70312,-3.13476 1.11328,-5.44922 0.41016,-2.31445 0.70313,-4.18945 0.29296,-1.9043 0.55664,-3.57422 0.26367,-1.66992 0.61523,-3.54492 -2.54883,0.73242 -4.42383,1.75781 -1.875,1.02539 -3.10547,2.19727 -1.23046,1.17187 -1.8164,2.43164 -0.58594,1.25976 -0.58594,2.46093 z" />
      <path
         id="path5974"
         style="font-style:normal;font-variant:normal;font-weight:normal;font-stretch:normal;font-size:60px;line-height:125%;font-family:Pacifico;-inkscape-font-specification:Pacifico;text-align:center;letter-spacing:0px;word-spacing:0px;writing-mode:lr-tb;text-anchor:middle;fill:#181619;fill-opacity:1;stroke:none;stroke-width:1px;stroke-linecap:butt;stroke-linejoin:miter;stroke-opacity:1"
         d="m -704.3623,-399.5809 q 0.8496,1.69922 1.25976,3.60351 0.43945,1.875 0.43945,3.60352 0,1.72851 -0.38086,3.48633 -0.38085,1.75781 -1.11328,3.39843 -0.70312,1.64063 -1.75781,3.07618 -1.02539,1.43554 -2.37305,2.49023 -1.31836,1.05469 -2.90039,1.66992 -1.58203,0.61524 -3.36914,0.61524 -2.57812,0 -4.42383,-1.11328 -1.8164,-1.14258 -2.98828,-2.95899 -1.17187,-1.8164 -1.72851,-4.10156 -0.52735,-2.28516 -0.52735,-4.62891 0,-3.22265 0.9668,-6.00586 0.9668,-2.8125 2.75391,-4.86328 1.8164,-2.08008 4.42383,-3.25195 2.60742,-1.20117 5.85937,-1.20117 2.7832,0 5.21484,0.8789 2.43164,0.84961 4.54102,2.31446 2.13867,1.43554 3.95508,3.31054 1.8457,1.875 3.42773,3.86719 l -0.55664,4.13086 q -0.79101,-1.05469 -2.13867,-2.28516 -1.34766,-1.23046 -2.87109,-2.40234 -1.49414,-1.17187 -2.95899,-2.19727 -1.46484,-1.05468 -2.51953,-1.75781 l -0.23437,0.32227 z m -9.05274,16.31836 q 0.99609,0 1.93359,-0.9961 0.9375,-1.02539 1.64063,-2.54882 0.70312,-1.55274 1.11328,-3.39844 0.43945,-1.875 0.43945,-3.57422 0,-1.34766 -0.20507,-2.49024 -0.20508,-1.17187 -0.61524,-2.02148 -0.41015,-0.84961 -1.05469,-1.34766 -0.64453,-0.49804 -1.55273,-0.49804 -1.20117,0 -2.28516,1.02539 -1.08398,1.02539 -1.90429,2.63672 -0.82032,1.58203 -1.28907,3.51562 -0.46875,1.9336 -0.46875,3.7207 0,1.23047 0.23438,2.31446 0.23437,1.08398 0.73242,1.90429 0.49805,0.79102 1.31836,1.28907 0.82031,0.46875 1.96289,0.46875 z" />
      <path
         id="path5976"
         style="font-style:normal;font-variant:normal;font-weight:normal;font-stretch:normal;font-size:60px;line-height:125%;font-family:Pacifico;-inkscape-font-specification:Pacifico;text-align:center;letter-spacing:0px;word-spacing:0px;writing-mode:lr-tb;text-anchor:middle;fill:#181619;fill-opacity:1;stroke:none;stroke-width:1px;stroke-linecap:butt;stroke-linejoin:miter;stroke-opacity:1"
         d="m -674.88965,-403.85825 q 0,0.79102 -0.17578,2.16797 -0.17578,1.34766 -0.46875,2.98828 -0.26367,1.61133 -0.58594,3.33985 -0.32226,1.72851 -0.61523,3.22265 -0.26367,1.49414 -0.43945,2.63672 -0.17579,1.11328 -0.17579,1.55274 0,0.82031 0.0293,1.52343 0.0293,0.67383 0.17578,1.20118 0.14649,0.49804 0.43946,0.79101 0.32226,0.26367 0.9082,0.26367 0.64453,0 1.55273,-0.32226 0.9375,-0.32227 1.96289,-0.84961 1.05469,-0.55664 2.13868,-1.23047 1.08398,-0.70312 2.05078,-1.46484 0.99609,-0.76172 1.78711,-1.49414 0.82031,-0.76172 1.31836,-1.40625 0,0.96679 0,1.75781 0.0293,0.79101 0.0293,1.52344 0,0.70312 0,1.46484 0.0293,0.76172 0.0293,1.69922 -0.64453,0.64453 -1.61133,1.37695 -0.9375,0.73242 -2.10937,1.46485 -1.14258,0.73242 -2.46094,1.40625 -1.28906,0.67382 -2.60742,1.20117 -1.31836,0.49804 -2.60743,0.82031 -1.28906,0.29297 -2.40234,0.29297 -1.11328,0 -1.9043,-0.43945 -0.79101,-0.43946 -1.37695,-1.23047 -0.55664,-0.79102 -0.9668,-1.875 -0.38086,-1.11328 -0.67382,-2.46094 -1.05469,1.37695 -2.22657,2.54883 -1.17187,1.14258 -2.40234,1.99218 -1.20117,0.84961 -2.46094,1.34766 -1.23047,0.46875 -2.40234,0.46875 -0.9668,0 -1.81641,-0.32226 -0.84961,-0.32227 -1.52344,-1.08399 -0.64453,-0.76172 -1.02539,-1.99219 -0.38086,-1.25976 -0.38086,-3.10547 0,-2.25585 0.52735,-5.74218 0.55664,-3.48633 1.34765,-7.96875 0.0586,-0.43946 0.20508,-1.17188 0.17578,-0.76172 0.43946,-1.64062 0.29296,-0.87891 0.70312,-1.78711 0.41016,-0.90821 0.9668,-1.64063 0.55664,-0.73242 1.28906,-1.20117 0.76172,-0.46875 1.69922,-0.49805 1.55273,0.0586 2.22656,0.41016 0.67383,0.32227 0.67383,0.82031 -0.26367,1.55274 -0.58594,3.45703 -0.29297,1.9043 -0.61523,3.83789 -0.32227,1.9336 -0.61524,3.7793 -0.29297,1.81641 -0.52734,3.25195 -0.23438,1.43555 -0.38086,2.31446 -0.11719,0.8789 -0.11719,0.9082 0,0.52734 0.0879,1.02539 0.11719,0.46875 0.32227,0.84961 0.20508,0.38086 0.52734,0.61524 0.32227,0.23437 0.76172,0.23437 0.64453,0 1.31836,-0.32227 0.67383,-0.35156 1.25977,-0.96679 0.61523,-0.64453 1.08398,-1.55274 0.46875,-0.9375 0.70313,-2.10937 l 2.90039,-14.88281 q 0.14648,-0.70313 1.17187,-1.17188 1.05469,-0.49805 2.37305,-0.49805 1.49414,0 2.37305,0.52735 0.8789,0.52734 0.8789,1.34765 z" />
      <path
         id="path5978"
         style="font-style:normal;font-variant:normal;font-weight:normal;font-stretch:normal;font-size:60px;line-height:125%;font-family:Pacifico;-inkscape-font-specification:Pacifico;text-align:center;letter-spacing:0px;word-spacing:0px;writing-mode:lr-tb;text-anchor:middle;fill:#181619;fill-opacity:1;stroke:none;stroke-width:1px;stroke-linecap:butt;stroke-linejoin:miter;stroke-opacity:1"
         d="m -668.56152,-383.76059 q 0,-1.93359 0.23437,-4.45312 0.23438,-2.54883 0.58594,-5.15625 0.35156,-2.63672 0.79101,-5.06836 0.43946,-2.43164 0.84961,-4.16016 0.32227,-1.34766 1.23047,-2.25586 0.9375,-0.9082 2.51953,-0.9082 1.58204,0 2.19727,0.96679 0.61523,0.9668 0.61523,2.57813 0,0.43945 -0.0879,1.20117 -0.0879,0.73242 -0.23437,1.64063 -0.11719,0.8789 -0.26367,1.8457 -0.14649,0.9375 -0.29297,1.75781 -0.11719,0.79102 -0.20508,1.40625 -0.0879,0.58594 -0.0879,0.79102 l 0.58594,0 q 0.17578,-0.32227 0.55664,-1.02539 0.38086,-0.73243 0.8789,-1.66993 0.49805,-0.9375 1.05469,-1.96289 0.58594,-1.05468 1.08399,-1.99218 0.49804,-0.9668 0.9082,-1.69922 0.41015,-0.73242 0.61523,-1.08399 0.9375,-1.58203 2.13867,-2.16797 1.20118,-0.58593 2.66602,-0.58593 1.46484,0 2.31445,1.23047 0.87891,1.23046 0.87891,3.39843 0,0.32227 -0.14648,1.08399 -0.11719,0.76172 -0.32227,1.8164 -0.20508,1.05469 -0.46875,2.31446 -0.23438,1.25976 -0.43945,2.57812 -0.20508,1.31836 -0.35157,2.60742 -0.11718,1.28907 -0.11718,2.37305 0,1.81641 0.43945,2.98828 0.46875,1.17188 1.43555,1.17188 0.43945,0 0.99609,-0.26367 0.58594,-0.26368 1.23047,-0.67383 0.67383,-0.43946 1.34766,-0.9961 0.70312,-0.55664 1.37695,-1.14257 1.55273,-1.37696 3.25195,-3.10547 l 0.49805,6.5625 -1.46485,1.11328 q -1.20117,0.9082 -2.46093,1.8164 -1.23047,0.90821 -2.57813,1.64063 -1.34765,0.70312 -2.8125,1.17187 -1.46484,0.43946 -3.07617,0.43946 -1.61133,0 -2.72461,-2.31446 -1.08398,-2.34375 -1.08398,-6.82617 0,-1.75781 0.23437,-3.77929 0.23438,-2.05079 0.58594,-4.39454 l -0.46875,0 -7.67578,15.23438 q -0.58594,1.20117 -1.31836,1.64062 -0.73242,0.43946 -1.69922,0.43946 -1.20117,0 -1.93359,-0.49805 -0.73243,-0.52734 -1.14258,-1.37695 -0.38086,-0.87891 -0.52735,-1.96289 -0.11718,-1.11328 -0.11718,-2.28516 z" />
      <path
         id="path5980"
         style="font-style:normal;font-variant:normal;font-weight:normal;font-stretch:normal;font-size:60px;line-height:125%;font-family:Pacifico;-inkscape-font-specification:Pacifico;text-align:center;letter-spacing:0px;word-spacing:0px;writing-mode:lr-tb;text-anchor:middle;fill:#181619;fill-opacity:1;stroke:none;stroke-width:1px;stroke-linecap:butt;stroke-linejoin:miter;stroke-opacity:1"
         d="m -628.4834,-399.78598 q -1.93359,0.9375 -3.45703,2.49023 -1.49414,1.52344 -2.51953,3.31055 -0.99609,1.78711 -1.52344,3.60352 -0.52734,1.8164 -0.52734,3.28125 0,0.58593 0.11719,1.17187 0.14648,0.58594 0.49804,1.05469 0.35156,0.46875 0.9961,0.76172 0.64453,0.29297 1.66992,0.29297 0.52734,0 1.02539,-0.26368 0.52734,-0.26367 0.99609,-0.67382 0.46875,-0.43946 0.87891,-0.9668 0.43945,-0.55664 0.79101,-1.14258 0.82032,-1.34765 1.49414,-3.04687 -0.0879,-0.41016 -0.14648,-1.28907 -0.0586,-0.9082 -0.0879,-1.99218 -0.0293,-1.11328 -0.0586,-2.28516 -0.0293,-1.17187 -0.0586,-2.13867 0,-0.9668 -0.0293,-1.58203 -0.0293,-0.61524 -0.0586,-0.58594 z m 20.15625,16.40625 q -2.08008,1.61133 -4.10156,2.87109 -0.84961,0.52735 -1.78711,1.05469 -0.9375,0.49805 -1.8457,0.9082 -0.90821,0.38086 -1.78711,0.64454 -0.84961,0.23437 -1.58203,0.23437 -0.41016,0 -1.23047,-0.17578 -0.79102,-0.17578 -1.75782,-0.70313 -0.9375,-0.55664 -1.90429,-1.58203 -0.9375,-1.02539 -1.64063,-2.72461 -1.08398,1.05469 -2.31445,2.02149 -1.20117,0.9375 -2.51953,1.64062 -1.28906,0.70313 -2.63672,1.14258 -1.31836,0.41016 -2.66602,0.41016 -1.90429,0 -3.31054,-0.82032 -1.37696,-0.82031 -2.31446,-2.16796 -0.9082,-1.37696 -1.37695,-3.10547 -0.43945,-1.72852 -0.43945,-3.57422 0,-1.875 0.46875,-3.7793 0.49804,-1.93359 1.40625,-3.7207 0.9375,-1.81641 2.25586,-3.39844 1.31836,-1.61133 2.98828,-2.8418 1.66992,-1.25976 3.63281,-2.08007 1.96289,-0.82032 4.18945,-1.02539 0.0879,-3.75 0.67383,-7.41211 0.58594,-3.66211 1.55274,-6.97266 0.96679,-3.31055 2.25586,-6.12305 1.31836,-2.8125 2.87109,-4.86328 1.55273,-2.05078 3.31055,-3.19336 1.75781,-1.17187 3.63281,-1.17187 1.37695,0 2.34375,0.73242 0.9668,0.70312 1.55273,1.9043 0.61524,1.17187 0.87891,2.7539 0.26367,1.55274 0.26367,3.22266 0,1.02539 -0.0879,2.10937 -0.38086,4.13086 -1.40625,7.82227 -1.02539,3.66211 -2.40234,7.14844 -1.37696,3.48632 -2.98828,6.91406 -1.61133,3.42773 -3.13477,7.11914 -0.14648,0.41016 -0.29297,0.99609 -0.14648,0.58594 -0.29297,1.28907 -0.11718,0.67382 -0.20508,1.40625 -0.0879,0.70312 -0.0879,1.37695 0,0.84961 0.0879,1.61133 0.11719,0.76172 0.35157,1.37695 0.23437,0.58594 0.61523,0.9375 0.41016,0.35156 0.9961,0.35156 0.55664,0 1.20117,-0.20508 0.67383,-0.23437 1.40625,-0.61523 0.73242,-0.38086 1.46484,-0.84961 0.76172,-0.49805 1.46484,-0.99609 1.61133,-1.17188 3.36915,-2.66602 l 0.8789,6.76758 z m -6.38672,-37.64648 q 0.17578,-2.05079 0.17578,-3.25196 0,-1.58203 -0.29296,-2.19726 -0.26368,-0.61524 -0.79102,-0.61524 -0.9375,0 -1.69922,1.20117 -0.76172,1.17188 -1.34766,3.01758 -0.58593,1.84571 -1.02539,4.07227 -0.43945,2.22656 -0.73242,4.30664 -0.29297,2.08008 -0.46875,3.75 -0.17578,1.66992 -0.23437,2.37305 -0.11719,1.43554 -0.20508,2.7832 -0.0586,1.31836 -0.0879,2.43164 -0.0293,1.08398 -0.0293,1.9043 0,0.82031 0,1.25976 l 0,0.29297 q 1.66992,-3.80859 3.07617,-7.58789 0.58594,-1.61133 1.17188,-3.36914 0.61523,-1.78711 1.11328,-3.57422 0.49805,-1.78711 0.84961,-3.51562 0.38086,-1.72852 0.52734,-3.28125 z" />
    </g>
  </g>
</svg>
